<?xml version="1.0" encoding="UTF-8"?>
<svg version="1.1" xmlns="http://www.w3.org/2000/svg" width="407" height="557">
<path d="M0 0 C134.31 0 268.62 0 407 0 C407 183.81 407 367.62 407 557 C272.69 557 138.38 557 0 557 C0 373.19 0 189.38 0 0 Z " fill="#000202" transform="translate(0,0)"/>
<path d="M0 0 C1.10408203 1.13115234 1.10408203 1.13115234 2.23046875 2.28515625 C13.55291032 13.38402351 28.27456019 17.32992208 43.0859375 21.7265625 C46.95430746 22.92588238 50.66671502 24.45313477 54.41601562 25.97851562 C58.57880235 27.62412217 62.8125382 29.03572858 67.0625 30.4375 C67.96790527 30.73825439 68.87331055 31.03900879 69.80615234 31.34887695 C76.2434394 33.46885704 82.71728151 35.42165435 89.23071289 37.29223633 C94.09945574 38.70131607 98.84878216 40.31383189 103.58984375 42.1015625 C105.89831985 42.96209654 108.2187004 43.74183178 110.5625 44.5 C131.14139312 51.37188038 140.48070576 62.96141152 150 82 C153.96 82 157.92 82 162 82 C162.56847656 80.87722656 163.13695312 79.75445312 163.72265625 78.59765625 C173.50936118 59.52465449 184.02749607 49.20715417 204.5625 42.3125 C207.03772562 41.52910385 209.51679501 40.75772315 212 40 C213.08023438 39.66355469 214.16046875 39.32710938 215.2734375 38.98046875 C218.51256456 37.97673925 221.75617041 36.98841396 225 36 C230.33981393 34.35366014 235.67172848 32.68323375 241 31 C242.62736084 30.48614746 242.62736084 30.48614746 244.28759766 29.96191406 C247.98487867 28.79171736 251.68012588 27.61527268 255.375 26.4375 C256.56359619 26.06149658 257.75219238 25.68549316 258.97680664 25.2980957 C264.9409551 23.39028702 270.79322944 21.36553318 276.58300781 18.98022461 C279.14478669 17.94128095 281.72696234 16.98172969 284.32421875 16.03515625 C285.64969727 15.54692383 285.64969727 15.54692383 287.00195312 15.04882812 C288.80139401 14.38794256 290.6035326 13.73435911 292.40820312 13.08789062 C300.41911226 10.11241009 306.1609599 6.19292131 312 0 C312.60551282 24.99370594 309.73697313 52.7018104 295 74 C291.61001271 75.37162218 288.96544263 74.79330241 285.45703125 74.0390625 C284.38259766 73.81476563 283.30816406 73.59046875 282.20117188 73.359375 C281.08291016 73.11703125 279.96464844 72.8746875 278.8125 72.625 C266.76753564 69.0965282 266.76753564 69.0965282 255 70 C255 72.31 255 74.62 255 77 C258.76622963 78.64868311 262.3524549 79.56110562 266.39453125 80.2890625 C267.59658203 80.50820313 268.79863281 80.72734375 270.03710938 80.953125 C271.28298828 81.17484375 272.52886719 81.3965625 273.8125 81.625 C275.07771484 81.85445313 276.34292969 82.08390625 277.64648438 82.3203125 C280.763507 82.88490528 283.88132433 83.44462375 287 84 C283.09838448 101.80665627 257.55965559 119.27928711 243.13623047 128.65234375 C237.25021331 132.36557972 231.20045299 135.8383912 225 139 C224.39172363 139.31324219 223.78344727 139.62648438 223.15673828 139.94921875 C220.51117238 141.21166423 218.34304382 141.99536427 215.3984375 142.03515625 C212.01490067 140.57483498 209.97007181 138.18082289 207.625 135.4375 C207.14748291 134.89754395 206.66996582 134.35758789 206.17797852 133.80126953 C204.77442225 132.2099885 203.38620258 130.6063973 202 129 C200.64588837 127.45828499 199.29173164 125.9166096 197.9375 124.375 C197.41027344 123.76398438 196.88304687 123.15296875 196.33984375 122.5234375 C194.02794739 119.79393004 194.02794739 119.79393004 190.80078125 118.46484375 C186.37269372 119.31093579 184.17763692 122.34219669 181.1875 125.5625 C179.93936142 126.86116657 178.68937756 128.15806232 177.4375 129.453125 C176.84195313 130.07380859 176.24640625 130.69449219 175.6328125 131.33398438 C173.18404947 133.83254283 170.55480273 136.07877318 167.88671875 138.3359375 C164.07517362 141.69767296 160.55494995 145.37098859 157 149 C152.94771616 147.39004835 150.26544021 144.50379367 147.28125 141.44140625 C146.74149536 140.89645004 146.20174072 140.35149384 145.64562988 139.7900238 C143.92558465 138.05221298 142.21238255 136.30785927 140.5 134.5625 C138.78677635 132.82158156 137.07208834 131.0821721 135.35437012 129.34568787 C134.28750482 128.26665024 133.22332362 127.18495022 132.16223145 126.10023499 C128.35289753 122.2200421 128.35289753 122.2200421 124 119 C120.36911177 119.05220885 118.59958544 119.48468062 115.83203125 121.86328125 C114.83236328 123.07564453 114.83236328 123.07564453 113.8125 124.3125 C113.04679687 125.20195312 112.28109375 126.09140625 111.4921875 127.0078125 C110.20444199 128.55391448 108.9178768 130.10112495 107.64941406 131.66308594 C106.26642991 133.35663495 104.8537079 135.02170738 103.4375 136.6875 C102.8038855 137.49924683 102.8038855 137.49924683 102.1574707 138.32739258 C100.87109375 139.82421875 100.87109375 139.82421875 98 142 C91.31496262 142.23480503 86.66329718 139.59315356 81.0625 136.1875 C80.23911133 135.69612549 79.41572266 135.20475098 78.56738281 134.69848633 C58.36304185 122.46862605 37.83954595 107.28064644 25 87 C25 86.34 25 85.68 25 85 C30.9270546 83.61771871 36.85527194 82.24600372 42.80078125 80.9453125 C43.61047363 80.76774414 44.42016602 80.59017578 45.25439453 80.40722656 C46.8629529 80.05536451 48.4719973 79.70571627 50.08154297 79.35839844 C54.15089487 78.51227503 54.15089487 78.51227503 58 77 C58.04254356 75.00045254 58.04080783 72.99958364 58 71 C56.848539 69.6290772 56.848539 69.6290772 53.7265625 69.78125 C47.81115709 69.85509367 42.13314289 71.24969902 36.375 72.5 C34.17565118 72.97421857 31.975154 73.44314857 29.7734375 73.90625 C28.32590088 74.22045898 28.32590088 74.22045898 26.84912109 74.54101562 C23.85290973 75.02369578 21.02960236 75.07847259 18 75 C12.08754611 63.98542853 7.4536206 53.02015771 4 41 C3.78827148 40.28118652 3.57654297 39.56237305 3.35839844 38.82177734 C-0.33858407 25.89991535 -0.46483844 13.36946874 0 0 Z " fill="#000103" transform="translate(46,271)"/>
</svg>
